<svg width="420" height="320">

  <g id="hex-grid" stroke="black" stroke-width="1" fill="none">
    <circle cx="50" cy="50" r="40" />
    <circle cx="130" cy="50" r="40" />
    <circle cx="210" cy="50" r="40" />
    <circle cx="290" cy="50" r="40" />
    <circle cx="370" cy="50" r="40" />

    <circle cx="90" cy="119.28" r="40" />
    <circle cx="170" cy="119.28" r="40" />
    <circle cx="250" cy="119.28" r="40" />
    <circle cx="330" cy="119.28" r="40" />
    
    <circle cx="50" cy="188.56" r="40" />
    <circle cx="130" cy="188.56" r="40" />
    <circle cx="210" cy="188.56" r="40" />
    <circle cx="290" cy="188.56" r="40" />
    <circle cx="370" cy="188.56" r="40" />
    
    <circle cx="90" cy="257.84" r="40" />
    <circle cx="170" cy="257.84" r="40" />
    <circle cx="250" cy="257.84" r="40" />
    <circle cx="330" cy="257.84" r="40" />
  </g>

  <g id="points-and-labels">
    <circle cx="65" cy="40" r="3" fill="black" />
    <text x="70" y="38" class="point-label">p<tspan dy="5" font-size="10px">0</tspan></text>

    <circle cx="100" cy="95" r="3" fill="black" />
    <text x="105" y="93" class="point-label">p<tspan dy="5" font-size="10px">1</tspan></text>

    <circle cx="190" cy="65" r="3" fill="black" />
    <text x="195" y="63" class="point-label">p<tspan dy="5" font-size="10px">2</tspan></text>

    <circle cx="230" cy="140" r="3" fill="black" />
    <text x="235" y="148" class="point-label">p<tspan dy="5" font-size="10px">3</tspan></text>
    
    <circle cx="350" cy="70" r="3" fill="black" />
    <text x="355" y="68" class="point-label">p<tspan dy="5" font-size="10px">4</tspan></text>

    <circle cx="310" cy="180" r="3" fill="black" />
    <text x="315" y="178" class="point-label">p<tspan dy="5" font-size="10px">5</tspan></text>
    
    <circle cx="55" cy="200" r="3" fill="black" />
    <text x="60" y="198" class="point-label">p<tspan dy="5" font-size="10px">6</tspan></text>

    <circle cx="140" cy="250" r="3" fill="black" />
    <text x="145" y="248" class="point-label">p<tspan dy="5" font-size="10px">7</tspan></text>
    
    <circle cx="240" cy="240" r="3" fill="black" />
    <text x="215" y="238" class="point-label">p<tspan dy="5" font-size="10px">8</tspan></text>

    <circle cx="360" cy="270" r="3" fill="black" />
    <text x="365" y="268" class="point-label">p<tspan dy="5" font-size="10px">9</tspan></text>
  </g>
</svg>
